# Blender 3.6.1
# www.blender.org
mtllib button.mtl
o Cube
v 0.750000 -0.750000 0.000000
v 1.000000 -1.000000 -0.319265
v -0.750000 -0.750000 0.000000
v -1.000000 -1.000000 -0.319265
v 0.750000 0.750000 0.000000
v 1.000000 1.000000 -0.319265
v -0.750000 0.750000 0.000000
v -1.000000 1.000000 -0.319265
v 1.000000 -1.000000 -0.619265
v -1.000000 -1.000000 -0.619265
v 1.000000 1.000000 -0.619265
v -1.000000 1.000000 -0.619265
v 0.540545 -0.540545 -0.105251
v -0.540545 -0.540545 -0.105251
v 0.540545 0.540545 -0.105251
v -0.540545 0.540545 -0.105251
vn -0.0000 0.4490 0.8935
vn -0.7873 -0.0000 0.6165
vn -0.0000 0.7873 0.6165
vn 1.0000 -0.0000 -0.0000
vn -0.0000 -0.7873 0.6165
vn 0.7873 -0.0000 0.6165
vn -0.0000 -0.0000 -1.0000
vn -1.0000 -0.0000 -0.0000
vn -0.0000 1.0000 -0.0000
vn -0.0000 -1.0000 -0.0000
vn -0.0000 -0.0000 1.0000
vn -0.4490 -0.0000 0.8935
vn 0.4490 -0.0000 0.8935
vn -0.0000 -0.4490 0.8935
vt 0.940211 0.423868
vt 0.565211 0.423868
vt 0.617575 0.365265
vt 0.887847 0.365265
vt 0.101375 1.000000
vt 0.000000 0.937500
vt -0.000000 0.562500
vt 0.101375 0.500000
vt 0.202750 1.000000
vt 0.101375 0.937500
vt 0.101375 0.562500
vt 0.202750 0.500000
vt 0.884493 0.972099
vt 0.884493 0.690313
vt 0.926761 0.690313
vt 0.926761 0.972099
vt 0.304125 1.000000
vt 0.202750 0.937500
vt 0.202750 0.562500
vt 0.304125 0.500000
vt 0.405500 1.000000
vt 0.304125 0.937500
vt 0.304125 0.562500
vt 0.405500 0.500000
vt 0.400103 0.381647
vt 0.038378 0.381647
vt 0.038378 0.019922
vt 0.400103 0.019922
vt 1.000000 0.075000
vt 0.500000 0.075000
vt 0.500000 0.000000
vt 1.000000 -0.000000
vt 1.000000 0.150000
vt 0.500000 0.150000
vt 0.500000 0.075000
vt 1.000000 0.075000
vt 1.000000 0.225000
vt 0.500000 0.225000
vt 0.500000 0.150000
vt 1.000000 0.150000
vt 0.844096 0.690726
vt 0.844096 0.960998
vt 0.573824 0.960998
vt 0.573824 0.690726
vt 0.940211 0.482471
vt 0.565211 0.482471
vt 0.617575 0.423868
vt 0.887847 0.423868
vt 0.940211 0.541074
vt 0.565211 0.541074
vt 0.617575 0.482471
vt 0.887847 0.482471
vt 0.940211 0.599677
vt 0.565211 0.599677
vt 0.617575 0.541074
vt 0.887847 0.541074
s 0
usemtl Material
f 3/1/1 1/2/1 13/3/1 14/4/1
f 4/5/2 3/6/2 7/7/2 8/8/2
f 8/9/3 7/10/3 5/11/3 6/12/3
f 6/13/4 2/14/4 9/15/4 11/16/4
f 2/17/5 1/18/5 3/19/5 4/20/5
f 6/21/6 5/22/6 1/23/6 2/24/6
f 11/25/7 9/26/7 10/27/7 12/28/7
f 4/29/8 8/30/8 12/31/8 10/32/8
f 8/33/9 6/34/9 11/35/9 12/36/9
f 2/37/10 4/38/10 10/39/10 9/40/10
f 13/41/11 15/42/11 16/43/11 14/44/11
f 1/45/12 5/46/12 15/47/12 13/48/12
f 7/49/13 3/50/13 14/51/13 16/52/13
f 5/53/14 7/54/14 16/55/14 15/56/14
